<?xml version="1.0" encoding="utf-8"?>
<!-- Generator: Adobe Illustrator 17.0.0, SVG Export Plug-In . SVG Version: 6.00 Build 0)  -->
<!DOCTYPE svg PUBLIC "-//W3C//DTD SVG 1.1//EN" "http://www.w3.org/Graphics/SVG/1.1/DTD/svg11.dtd">
<svg version="1.1" id="图层_1" xmlns="http://www.w3.org/2000/svg" xmlns:xlink="http://www.w3.org/1999/xlink" x="0px" y="0px"
	 width="595.28px" height="841.89px" viewBox="0 0 595.28 841.89" enable-background="new 0 0 595.28 841.89" xml:space="preserve">
<g>
	<path fill="#272636" d="M49.572,159.497c29.77,2.62,58.335,5.014,86.871,7.714c8.536,0.811,15.667,4.839,21.45,11.335
		c44.911,50.445,89.95,100.781,134.701,151.368c4.29,4.849,6.121,4.718,10.326-0.038c44.445-50.232,89.178-100.205,133.731-150.344
		c6.103-6.872,13.326-11.442,22.453-12.293c28.776-2.688,57.584-5.029,86.351-7.809c5.05-0.49,5.854,1.054,5.409,5.599
		c-2.775,28.289-5.415,56.59-7.908,84.906c-0.86,9.798-5.323,17.329-12.56,23.768c-51.703,45.997-103.264,92.158-155.062,138.051
		c-4.335,3.842-4.772,5.869-0.7,10.21c12.157,12.961,23.702,26.494,35.716,39.588c2.943,3.205,3.457,5.021-0.011,8.415
		c-18.634,18.24-37.057,36.692-55.318,55.303c-3.124,3.181-4.807,2.95-7.901,0.125c-15.058-13.732-30.452-27.1-45.451-40.894
		c-3.267-3.006-4.947-2.65-7.985,0.125c-14.705,13.418-29.805,26.405-44.401,39.941c-4.133,3.834-6.287,3.335-9.984-0.445
		c-17.901-18.301-36.028-36.383-54.285-54.326c-3.032-2.985-3.285-4.599-0.308-7.837c12.355-13.429,24.188-27.343,36.651-40.665
		c3.792-4.053,3.012-5.789-0.73-9.109c-51.766-45.929-103.327-92.083-155.08-138.025c-7.876-6.988-12.403-15.159-13.305-25.672
		c-2.386-27.853-4.928-55.691-7.646-83.511C44.059,159.536,45.813,158.046,49.572,159.497L49.572,159.497z"/>
	<path fill="#272636" d="M237.665,617.9c-6.833,0.119-12.275-2.792-16.981-7.545c-9.839-9.937-19.848-19.706-29.58-29.744
		c-2.667-2.754-4.234-3.225-7.207-0.216c-21.993,22.248-44.13,44.351-66.352,66.367c-2.624,2.599-2.778,4.172,0.027,6.587
		c3.222,2.775,6.234,5.831,9.073,9c4.911,5.481,4.545,11.601-0.757,17.038c-5.451,5.59-12.213,6.293-17.542,1.012
		c-26.259-26.025-52.4-52.166-78.435-78.414c-5.563-5.611-5.047-11.771,0.63-17.491c5.501-5.54,11.83-5.789,17.566-0.688
		c0.175,0.157,0.338,0.332,0.522,0.48c4.133,3.404,7.174,10.706,11.863,10.015c4.365-0.644,7.937-6.872,11.789-10.714
		c18.951-18.922,37.799-37.947,56.892-56.724c3.261-3.208,3.445-4.931,0.036-8.172c-9.958-9.468-19.577-19.295-29.235-29.078
		c-10.555-10.694-10.489-23.75,0.053-34.535c1.822-1.863,3.659-3.715,5.522-5.537c11.091-10.833,23.957-10.801,35.009,0.24
		c39.906,39.862,79.788,79.749,119.64,119.66c11.314,11.332,11.269,24.156,0.054,35.536
		C249.501,615.88,245.961,617.903,237.665,617.9L237.665,617.9z"/>
	<path fill="#272636" d="M503.186,472.17c0.042,6.759-2.492,12.373-7.291,17.118c-9.937,9.83-19.675,19.862-29.731,29.574
		c-2.953,2.854-3.54,4.409-0.223,7.673c22.123,21.767,44.048,43.733,65.869,65.806c2.928,2.961,4.643,2.863,7.204-0.148
		c2.602-3.057,5.555-5.837,8.536-8.534c5.332-4.827,11.73-4.548,17.041,0.555c5.854,5.622,6.658,11.984,1.231,17.465
		c-26.17,26.432-52.484,52.727-78.924,78.885c-5.285,5.225-12.088,4.338-17.5-1.364c-5.279-5.564-5.445-11.421-0.46-17.05
		c0.623-0.709,1.348-1.329,2.014-2.005c10.056-10.169,10.05-10.163,0.152-20.059c-19.438-19.432-39.007-38.734-58.187-58.412
		c-4.05-4.157-6.133-3.745-9.806,0.172c-8.421,8.982-17.317,17.525-26.034,26.23c-13.445,13.429-25.254,13.491-38.544,0.213
		c-1.172-1.175-2.347-2.344-3.51-3.525c-10.88-11.026-10.988-24.09-0.098-35.009c28.776-28.853,57.617-57.641,86.431-86.458
		c11.228-11.222,22.417-22.482,33.693-33.656c11.002-10.902,23.895-10.843,34.998,0.041
		C500.795,460.215,503.127,464.203,503.186,472.17L503.186,472.17z"/>
</g>
</svg>
