<?xml version="1.0" encoding="utf-8"?>
<!-- Generator: Adobe Illustrator 17.0.0, SVG Export Plug-In . SVG Version: 6.00 Build 0)  -->
<!DOCTYPE svg PUBLIC "-//W3C//DTD SVG 1.1//EN" "http://www.w3.org/Graphics/SVG/1.1/DTD/svg11.dtd">
<svg style="width:308px;height:308px;" version="1.1" id="图形" xmlns="http://www.w3.org/2000/svg" xmlns:xlink="http://www.w3.org/1999/xlink" x="0px" y="0px" width="1024px" height="1024px" viewBox="0 0 1024 1024" enable-background="new 0 0 1024 1024" xml:space="preserve">
	<path fill="#272636" d="M515.682,675.885H370.536c-20.027,0-36.282-16.255-36.282-36.308V494.456
		c0-20.017,16.255-36.297,36.282-36.297h145.146c20.028,0,36.283,16.28,36.283,36.297v145.121
		C551.965,659.63,535.71,675.885,515.682,675.885L515.682,675.885z M515.682,385.618H370.536c-20.027,0-36.282-16.255-36.282-36.273
		V204.214c0-20.063,16.255-36.318,36.282-36.318h145.146c20.028,0,36.283,16.255,36.283,36.318v145.132
		C551.965,369.363,535.71,385.618,515.682,385.618L515.682,385.618z M225.415,675.885H80.283C60.244,675.885,44,659.63,44,639.577
		V494.456c0-20.017,16.244-36.297,36.283-36.297h145.132c20.031,0,36.272,16.28,36.272,36.297v145.121
		C261.687,659.63,245.443,675.885,225.415,675.885L225.415,675.885z M225.415,385.618H80.283C60.244,385.618,44,369.363,44,349.346
		V204.214c0-20.063,16.244-36.318,36.283-36.318h145.132c20.031,0,36.272,16.255,36.272,36.318v145.132
		C261.687,369.363,245.443,385.618,225.415,385.618L225.415,385.618z"/>
</svg>
