<?xml version="1.0" encoding="utf-8"?>
<!DOCTYPE svg PUBLIC "-//W3C//DTD SVG 1.1//EN" "http://www.w3.org/Graphics/SVG/1.1/DTD/svg11.dtd">
<svg style="width:308px;height:308px;" version="1.1" id="图形" xmlns="http://www.w3.org/2000/svg" xmlns:xlink="http://www.w3.org/1999/xlink" x="0px" y="0px" width="1024px" height="1024px" viewBox="0 0 1024 1024" enable-background="new 0 0 1024 1024" xml:space="preserve">
  <path class="svgpath" data-index="path_0" fill="#272636" d="M622.303198 120.212896c0 51.53677-41.775452 93.314269-93.314269 93.314269-51.53677 0-93.314269-41.777499-93.314269-93.314269 0-51.538817 41.776476-93.314269 93.314269-93.314269C580.527746 26.89965 622.303198 68.681242 622.303198 120.212896L622.303198 120.212896zM528.989953 810.81155c-45.090964 0-81.649602 36.552497-81.649602 81.649602 0 45.090964 36.558637 81.649602 81.649602 81.649602 45.097104 0 81.649602-36.558637 81.649602-81.649602C610.639554 847.364047 574.086034 810.81155 528.989953 810.81155L528.989953 810.81155zM915.116127 564.655244c-32.212656 0-58.32129-26.101471-58.32129-58.32129 0-32.207539 26.108634-58.32129 58.32129-58.32129 32.213679 0 58.32129 26.113751 58.32129 58.32129C973.437417 538.553773 947.32469 564.655244 915.116127 564.655244L915.116127 564.655244zM236.182141 506.333954c0-51.538817-41.775452-93.314269-93.314269-93.314269s-93.314269 41.775452-93.314269 93.314269 41.775452 93.314269 93.314269 93.314269S236.182141 557.87277 236.182141 506.333954L236.182141 506.333954zM321.949526 167.32489c36.43891 36.439934 36.43891 95.52461 0 131.963521-36.44505 36.43891-95.528704 36.43891-131.969661 0-36.44505-36.43891-36.44505-95.522564 0-131.969661C226.420823 130.879839 285.504476 130.879839 321.949526 167.32489L321.949526 167.32489zM752.536308 729.879286c-27.333532 27.332509-27.333532 71.64269 0 98.975199 27.332509 27.326369 71.641667 27.326369 98.974176 0 27.332509-27.332509 27.332509-71.64269 0-98.975199C824.177975 702.546777 779.867794 702.546777 752.536308 729.879286L752.536308 729.879286zM835.016835 266.300089c-18.219967 18.219967-47.761794 18.219967-65.98176 0-18.225083-18.225083-18.225083-47.767933 0-65.9879 18.225083-18.219967 47.767933-18.219967 65.98176 0C853.236801 218.532155 853.236801 248.081145 835.016835 266.300089L835.016835 266.300089zM321.949526 713.385637c-36.44505-36.44505-95.522564-36.44505-131.969661 0-36.43891 36.43891-36.44505 95.51847 0 131.957381 36.440957 36.44505 95.52461 36.44505 131.963521 0C358.388437 808.904107 358.388437 749.82557 321.949526 713.385637L321.949526 713.385637zM321.949526 713.385637" />

</svg>
