<?xml version="1.0" encoding="utf-8"?>
<!DOCTYPE svg PUBLIC "-//W3C//DTD SVG 1.1//EN" "http://www.w3.org/Graphics/SVG/1.1/DTD/svg11.dtd">
<svg style="width:308px;height:308px;" version="1.1" id="图形" xmlns="http://www.w3.org/2000/svg" xmlns:xlink="http://www.w3.org/1999/xlink" x="0px" y="0px" width="1024px" height="1024px" viewBox="0 0 1024 1024" enable-background="new 0 0 1024 1024" xml:space="preserve">
  <path class="svgpath" data-index="path_0" fill="#272636" d="M537.169 122.063c83.635 5.366 165.857 37.508 232.769 96.416l71.904-71.904c-86.887-78.54-195.014-120.603-304.677-126.185l0.008 101.68zM122.063 486.831c5.366-83.635 37.508-165.857 96.415-232.768l-71.905-71.905c-78.54 86.887-120.603 195.014-126.185 304.677h101.672zM182.154 146.569l71.904 71.904c66.906-58.909 149.134-91.049 232.769-96.416l0.008-101.68c-109.655 5.579-217.795 47.636-304.677 126.185zM486.831 901.937c-83.635-5.366-165.857-37.508-232.768-96.415l-71.904 71.904c86.893 78.546 195.014 120.603 304.677 126.185v-101.672zM218.477 769.937c-58.909-66.906-91.049-149.134-96.415-232.768l-101.68-0.008c5.579 109.655 47.636 217.793 126.188 304.673l71.904-71.904zM805.523 254.063c58.909 66.906 91.049 149.134 96.415 232.768l101.68 0.008c-5.585-109.65-47.636-217.795-126.188-304.673l-71.905 71.905zM769.937 805.523c-66.906 58.909-149.134 91.049-232.768 96.415l-0.008 101.68c109.655-5.579 217.795-47.636 304.677-126.185l-71.905-71.905zM901.937 537.169c-5.366 83.635-37.508 165.857-96.415 232.768l71.905 71.905c78.54-86.887 120.603-195.014 126.185-304.677h-101.672z" />

</svg>
