<?xml version="1.0" encoding="utf-8"?>
<!-- Generator: Adobe Illustrator 17.0.0, SVG Export Plug-In . SVG Version: 6.00 Build 0)  -->
<!DOCTYPE svg PUBLIC "-//W3C//DTD SVG 1.1//EN" "http://www.w3.org/Graphics/SVG/1.1/DTD/svg11.dtd">
<svg style="width:308px;height:308px;" version="1.1" id="图形" xmlns="http://www.w3.org/2000/svg" xmlns:xlink="http://www.w3.org/1999/xlink" x="0px" y="0px" width="1024px" height="1024px" viewBox="0 0 1024 1024" enable-background="new 0 0 1024 1024" xml:space="preserve">
	<path fill="#272636" d="M297.75,513.179L297.75,513.179c64.07,0,116.492-52.422,116.492-116.492V186.382
		c0-64.07-52.422-116.492-116.492-116.492l0,0c-64.07,0-116.492,52.422-116.492,116.492v210.305
		C181.258,460.757,233.68,513.179,297.75,513.179L297.75,513.179z M498.57,262.694c-22.609,0-40.937,18.329-40.937,40.934v96.313
		c0,88.16-71.723,159.882-159.883,159.882s-159.883-71.722-159.883-159.882v-96.313c0-22.605-18.324-40.934-40.933-40.934
		C74.328,262.694,56,281.023,56,303.628v96.313c0,32.523,6.43,64.14,19.105,93.98c12.211,28.746,29.665,54.582,51.875,76.793
		c22.208,22.207,48.043,39.66,76.793,51.875c17.149,7.285,34.887,12.496,53.043,15.617v52.535h-80.578
		c-22.609,0-40.933,18.328-40.933,40.934c0,22.605,18.324,40.934,40.933,40.934h243.028c22.605,0,40.933-18.329,40.933-40.934
		c0-22.606-18.328-40.934-40.933-40.934h-80.578v-52.535c18.156-3.121,35.894-8.332,53.042-15.617
		c28.747-12.215,54.586-29.668,76.793-51.875c22.207-22.211,39.661-48.047,51.875-76.793c12.676-29.84,19.106-61.457,19.106-93.98
		v-96.313C539.504,281.023,521.176,262.694,498.57,262.694L498.57,262.694z M498.57,262.694"/>
</svg>
