<?xml version="1.0" encoding="utf-8"?>
<!DOCTYPE svg PUBLIC "-//W3C//DTD SVG 1.1//EN" "http://www.w3.org/Graphics/SVG/1.1/DTD/svg11.dtd">
<svg style="width:308px;height:308px;" version="1.1" id="图形" xmlns="http://www.w3.org/2000/svg" xmlns:xlink="http://www.w3.org/1999/xlink" x="0px" y="0px" width="1024px" height="1024px" viewBox="0 0 1024 1024" enable-background="new 0 0 1024 1024" xml:space="preserve">
  <path d="M480 704c88.352 0 160-71.648 160-160l0-384c0-88.352-71.648-160-160-160s-160 71.648-160 160l0 384c0 88.352 71.648 160 160 160zM704 448l0 96c0 123.712-100.288 224-224 224s-224-100.288-224-224l0-96-64 0 0 96c0 148.224 112 270.304 256 286.208l0 129.792-128 0 0 64 320 0 0-64-128 0 0-129.792c144-15.904 256-137.984 256-286.208l0-96-64 0z" fill="#272636"></path>
</svg>
