<?xml version="1.0" encoding="utf-8"?>
<!DOCTYPE svg PUBLIC "-//W3C//DTD SVG 1.1//EN" "http://www.w3.org/Graphics/SVG/1.1/DTD/svg11.dtd">
<svg style="width:308px;height:308px;" version="1.1" id="图形" xmlns="http://www.w3.org/2000/svg" xmlns:xlink="http://www.w3.org/1999/xlink" x="0px" y="0px" width="1024px" height="1024px" viewBox="0 0 1024 1024" enable-background="new 0 0 1024 1024" xml:space="preserve">
  <path d="M896 480l-1.568 0c-15.744 168.8-152.288 352-318.432 352l0 128 192 0c17.696 0 32 14.304 32 32s-14.304 32-32 32l-512 0c-17.696 0-32-14.304-32-32s14.304-32 32-32l192 0 0-128c-166.144 0-302.656-183.2-318.432-352l-1.568 0 0-192c0-35.328 28.672-64 64-64s64 28.672 64 64l0 160c0 141.376 114.624 256 256 256s256-114.624 256-256l0-160c0-35.328 28.672-64 64-64s64 28.672 64 64l0 192zM512 576c-88.384 0-128-71.616-128-160l0-256c0-88.352 39.616-160 128-160s128 71.648 128 160l0 256c0 88.384-39.616 160-128 160zM560 448c8.832 0 16-7.168 16-16s-7.168-16-16-16-16 7.2-16 16c0 8.832 7.168 16 16 16zM464 256c-8.832 0-16 7.2-16 16s7.168 16 16 16 16-7.168 16-16c0-8.8-7.168-16-16-16zM480 208c0-8.832-7.168-16-16-16s-16 7.168-16 16c0 8.832 7.168 16 16 16s16-7.168 16-16zM496 352c-8.832 0-16 7.2-16 16s7.168 16 16 16 16-7.168 16-16c0-8.8-7.168-16-16-16zM528 352c8.832 0 16-7.168 16-16s-7.168-16-16-16-16 7.2-16 16c0 8.832 7.168 16 16 16zM496 320c8.832 0 16-7.168 16-16s-7.168-16-16-16-16 7.2-16 16c0 8.832 7.168 16 16 16zM464 320c-8.832 0-16 7.2-16 16s7.168 16 16 16 16-7.168 16-16c0-8.8-7.168-16-16-16zM496 256c8.832 0 16-7.168 16-16s-7.168-16-16-16-16 7.168-16 16c0 8.832 7.168 16 16 16zM528 224c8.832 0 16-7.168 16-16s-7.168-16-16-16-16 7.168-16 16c0 8.832 7.168 16 16 16zM528 256c-8.832 0-16 7.2-16 16s7.168 16 16 16 16-7.168 16-16c0-8.8-7.168-16-16-16zM560 256c8.832 0 16-7.168 16-16s-7.168-16-16-16-16 7.168-16 16c0 8.832 7.168 16 16 16zM560 288c-8.832 0-16 7.2-16 16s7.168 16 16 16 16-7.168 16-16c0-8.8-7.168-16-16-16zM560 352c-8.832 0-16 7.2-16 16s7.168 16 16 16 16-7.168 16-16c0-8.8-7.168-16-16-16zM528 416c8.832 0 16-7.168 16-16s-7.168-16-16-16-16 7.2-16 16c0 8.832 7.168 16 16 16zM496 448c8.832 0 16-7.168 16-16s-7.168-16-16-16-16 7.2-16 16c0 8.832 7.168 16 16 16zM464 416c8.832 0 16-7.168 16-16s-7.168-16-16-16-16 7.2-16 16c0 8.832 7.168 16 16 16zM464 128c-8.832 0-16 7.168-16 16s7.168 16 16 16 16-7.168 16-16c0-8.832-7.168-16-16-16zM496 160c-8.832 0-16 7.168-16 16s7.168 16 16 16 16-7.168 16-16c0-8.832-7.168-16-16-16zM528 128c-8.832 0-16 7.168-16 16s7.168 16 16 16 16-7.168 16-16c0-8.832-7.168-16-16-16zM560 160c-8.832 0-16 7.168-16 16s7.168 16 16 16 16-7.168 16-16c0-8.832-7.168-16-16-16z"></path>
</svg>
