<?xml version="1.0" encoding="utf-8"?>
<!DOCTYPE svg PUBLIC "-//W3C//DTD SVG 1.1//EN" "http://www.w3.org/Graphics/SVG/1.1/DTD/svg11.dtd">
<svg style="width:308px;height:308px;" version="1.1" id="图形" xmlns="http://www.w3.org/2000/svg" xmlns:xlink="http://www.w3.org/1999/xlink" x="0px" y="0px" width="1024px" height="1024px" viewBox="0 0 1024 1024" enable-background="new 0 0 1024 1024" xml:space="preserve">
  <path class="svgpath" data-index="path_0" fill="#272636" d="M715.490577 878.264824c0 22.50148-18.240433 40.74089-40.738843 40.74089L185.875384 919.005714c-22.49841 0-40.73475-18.23941-40.73475-40.74089L145.140635 674.567539c0-22.49841 18.23634-40.74089 40.73475-40.74089l244.440222 0 0-40.73782L185.875384 593.08883c-45.000913 0-81.477686 36.478819-81.477686 81.478709l0 203.698309c0 44.998867 36.475749 81.480756 81.477686 81.480756L674.751734 959.746604c45.000913 0 81.481779-36.481889 81.481779-81.480756l0-40.73782-40.742936 0L715.490577 878.264824zM837.715293 63.473637 593.270978 63.473637c-44.992727 0-81.477686 36.478819-81.477686 81.478709l0 529.615193c0 44.998867 36.484959 81.478709 81.477686 81.478709l244.444315 0c44.99682 0 81.473593-36.478819 81.473593-81.478709L919.188886 144.952346C919.187863 99.952456 882.712113 63.473637 837.715293 63.473637zM878.453113 674.567539c0 22.49841-18.244526 40.74089-40.738843 40.74089L593.270978 715.308429c-22.49841 0-40.73475-18.24248-40.73475-40.74089L552.536228 144.952346c0-22.49841 18.23634-40.74089 40.73475-40.74089l244.444315 0c22.494317 0 40.738843 18.24248 40.738843 40.74089L878.454136 674.567539zM715.490577 572.71685c-22.49841 0-40.738843 18.24248-40.738843 40.74089 0 22.50148 18.240433 40.74089 40.738843 40.74089 22.49841 0 40.742936-18.23941 40.742936-40.74089C756.233514 590.95933 737.988987 572.71685 715.490577 572.71685z" />

</svg>
