<?xml version="1.0" encoding="utf-8"?>
<!-- Generator: Adobe Illustrator 17.0.0, SVG Export Plug-In . SVG Version: 6.00 Build 0)  -->
<!DOCTYPE svg PUBLIC "-//W3C//DTD SVG 1.1//EN" "http://www.w3.org/Graphics/SVG/1.1/DTD/svg11.dtd">
<svg version="1.1" id="图层_1" xmlns="http://www.w3.org/2000/svg" xmlns:xlink="http://www.w3.org/1999/xlink" x="0px" y="0px"
	 width="595.28px" height="841.89px" viewBox="0 0 595.28 841.89" enable-background="new 0 0 595.28 841.89" xml:space="preserve">
<g>
	<path fill="#272636" d="M339.308,175.771v-45.035L173.276,234.505l166.032,103.769v-77.992
		c83.014,18.969,145.276,93.059,145.276,181.761c0,102.98-83.806,186.783-186.783,186.783
		c-102.981,0-186.787-83.803-186.787-186.783c0-22.952-18.554-41.507-41.507-41.507C46.554,400.537,28,419.091,28,442.044
		c0,148.763,121.038,269.801,269.801,269.801s269.801-121.038,269.801-269.801C567.602,307.433,468.355,195.82,339.308,175.771
		L339.308,175.771z"/>
</g>
</svg>
