<?xml version="1.0" encoding="utf-8"?>
<!DOCTYPE svg PUBLIC "-//W3C//DTD SVG 1.1//EN" "http://www.w3.org/Graphics/SVG/1.1/DTD/svg11.dtd">
<svg style="width:308px;height:308px;" version="1.1" id="图形" xmlns="http://www.w3.org/2000/svg" xmlns:xlink="http://www.w3.org/1999/xlink" x="0px" y="0px" width="1024px" height="1024px" viewBox="0 0 1024 1024" enable-background="new 0 0 1024 1024" xml:space="preserve">
  <path class="svgpath" data-index="path_0" fill="#272636" d="M937.111071 311.473941 937.111071 311.473941 446.868607 804.927539l0 0c-12.126178 12.198833-28.875654 19.74367-47.378054 19.74367-18.503423 0-35.253922-7.543813-47.378054-19.74367l0 0L85.215824 559.665603l0 0c-12.129248-12.199856-19.62599-29.055756-19.62599-47.673789 0-37.240159 29.999245-67.424622 67.001997-67.424622 18.505469 0 35.253922 7.543813 47.378054 19.747763l0 0 219.519646 197.583031 442.86441-445.774693 0 0c12.124132-12.201903 28.875654-19.747763 47.376007-19.747763 37.005822 0 67.005067 30.184463 67.005067 67.424622C956.735014 282.413068 949.236226 299.273061 937.111071 311.473941z" />

</svg>
