<?xml version="1.0" encoding="utf-8"?>
<!DOCTYPE svg PUBLIC "-//W3C//DTD SVG 1.1//EN" "http://www.w3.org/Graphics/SVG/1.1/DTD/svg11.dtd">
<svg style="width:308px;height:308px;" version="1.1" id="图形" xmlns="http://www.w3.org/2000/svg" xmlns:xlink="http://www.w3.org/1999/xlink" x="0px" y="0px" width="1024px" height="1024px" viewBox="0 0 1024 1024" enable-background="new 0 0 1024 1024" xml:space="preserve">
  <path class="svgpath" data-index="path_0" fill="#272636" d="M894.842 227.486c11.706 11.729 11.706 30.91 0 42.597l-234.263 234.373c-11.706 11.68-11.706 30.892 0 42.622l234.143 234.451c11.71 11.71 11.71 30.892 0 42.597l-85.303 85.147c-11.706 11.68-30.887 11.68-42.592 0l-234.059-234.457c-11.706-11.706-30.887-11.706-42.592 0l-234.259 234.282c-11.706 11.688-30.887 11.688-42.592 0l-85.195-85.261c-11.706-11.688-11.706-30.916 0-42.603l234.324-234.306c11.706-11.706 11.706-30.875 0-42.639l-234.136-234.433c-11.71-11.729-11.71-30.916 0.024-42.603l85.249-85.134c11.699-11.729 30.887-11.729 42.592 0.042l234.06 234.367c11.699 11.729 30.887 11.729 42.586 0.042l234.233-234.283c11.706-11.71 30.879-11.71 42.592 0l85.188 85.201z" />

</svg>
