<?xml version="1.0" encoding="utf-8"?>
<!-- Generator: Adobe Illustrator 17.0.0, SVG Export Plug-In . SVG Version: 6.00 Build 0)  -->
<!DOCTYPE svg PUBLIC "-//W3C//DTD SVG 1.1//EN" "http://www.w3.org/Graphics/SVG/1.1/DTD/svg11.dtd">
<svg version="1.1" id="图形" xmlns="http://www.w3.org/2000/svg" xmlns:xlink="http://www.w3.org/1999/xlink" x="0px" y="0px"
	 width="1000.636px" height="1000.678px" viewBox="15.167 -16.333 1000.636 1000.678"
	 enable-background="new 15.167 -16.333 1000.636 1000.678" xml:space="preserve">
<path fill="#272636" d="M671.581,365.908c9.584,10.627,25.311,10.627,35.001,0l105.056-114.592c9.743-10.627,9.743-27.608,0-38.178
	l-35.001-38.178c-9.584-10.627-25.311-10.627-35.001,0L636.58,289.552c-9.743,10.627-9.743,27.608,0,38.178L671.581,365.908
	L671.581,365.908z M554.081,107.672h-48.61c-13.344,0-24.305,11.84-24.305,26.511v4.505L311.72,323.513H189.454
	c-26.9,0-48.61,23.796-48.61,53.022v212.03c0,29.341,21.71,53.022,48.61,53.022H311.72L481.219,826.47v4.505
	c0,14.671,10.961,26.511,24.305,26.511h48.557c13.45,0,24.305-11.84,24.305-26.511V134.183
	C578.386,119.454,567.425,107.672,554.081,107.672L554.081,107.672L554.081,107.672z M894.296,429.499H748.52
	c-13.45,0-24.305,11.84-24.305,26.511v53.022c0,14.671,10.855,26.511,24.305,26.511h145.776c13.45,0,24.305-11.84,24.305-26.511
	V456.01C918.601,441.34,907.746,429.499,894.296,429.499L894.296,429.499L894.296,429.499z M706.635,599.135
	c-9.584-10.627-25.311-10.627-35.001,0l-35.001,38.178c-9.743,10.454-9.743,27.608,0,38.178l105.056,114.592
	c9.584,10.57,25.311,10.57,35.001,0l35.001-38.178c9.743-10.57,9.743-27.608,0-38.178L706.635,599.135L706.635,599.135z"/>
</svg>
