<?xml version="1.0" encoding="utf-8"?>
<!-- Generator: Adobe Illustrator 17.0.0, SVG Export Plug-In . SVG Version: 6.00 Build 0)  -->
<!DOCTYPE svg PUBLIC "-//W3C//DTD SVG 1.1//EN" "http://www.w3.org/Graphics/SVG/1.1/DTD/svg11.dtd">
<svg style="width:308px;height:308px;" version="1.1" id="图形" xmlns="http://www.w3.org/2000/svg" xmlns:xlink="http://www.w3.org/1999/xlink" x="0px" y="0px" width="1024px" height="1024px" viewBox="0 0 1024 1024" enable-background="new 0 0 1024 1024" xml:space="preserve">
	<path fill="#272636" d="M430.695,321.359c9.012,9.133,23.77,9.133,32.903,0l98.707-98.707c9.133-9.133,9.133-23.77,0-32.903
		l-32.903-32.902c-9.011-9.133-23.769-9.133-32.902,0l-98.707,98.707c-9.133,9.133-9.133,23.77,0,32.902L430.695,321.359
		L430.695,321.359z M320.277,98.89h-45.668c-12.531,0-22.832,10.188-22.832,22.832v3.863L92.531,284.831H-22.332
		c-25.293,0-45.668,20.493-45.668,45.668V513.16c0,25.289,20.375,45.664,45.668,45.664H92.531L251.777,718.07v3.863
		c0,12.648,10.301,22.832,22.832,22.832h45.668c12.645,0,22.832-10.184,22.832-22.832V121.73c0-12.649-10.3-22.836-22.832-22.836
		l0,0V98.89z M639.934,376.16H502.938c-12.645,0-22.833,10.187-22.833,22.832v45.668c0,12.648,10.188,22.832,22.833,22.832h136.996
		c12.648,0,22.832-10.184,22.832-22.832v-45.668C662.766,386.347,652.582,376.16,639.934,376.16L639.934,376.16L639.934,376.16z
		 M463.598,522.288c-9.016-9.132-23.774-9.132-32.907,0l-32.902,32.903c-9.133,9.015-9.133,23.769,0,32.902l98.711,98.711
		c9.012,9.129,23.77,9.129,32.902,0l32.903-32.906c9.133-9.129,9.133-23.77,0-32.903L463.598,522.288L463.598,522.288z
		 M463.598,522.288"/>
</svg>
