<?xml version="1.0" encoding="utf-8"?>
<!-- Generator: Adobe Illustrator 17.0.0, SVG Export Plug-In . SVG Version: 6.00 Build 0)  -->
<!DOCTYPE svg PUBLIC "-//W3C//DTD SVG 1.1//EN" "http://www.w3.org/Graphics/SVG/1.1/DTD/svg11.dtd">
<svg version="1.1" id="图形" xmlns="http://www.w3.org/2000/svg" xmlns:xlink="http://www.w3.org/1999/xlink" x="0px" y="0px"
	 width="1024px" height="1024px" viewBox="0 0 1024 1024" enable-background="new 0 0 1024 1024" xml:space="preserve">
<path fill="#272636" d="M715.284,99.487L407.872,304.431H305.401c-37.73,0-68.318,30.584-68.318,68.314v273.255
	c0,37.733,30.588,68.319,68.318,68.319h102.471l307.412,204.946c37.73,0,68.314-30.588,68.314-68.319V167.804
	C783.597,130.079,753.014,99.487,715.284,99.487z M407.872,611.846c0,18.865-15.296,34.155-34.157,34.155h-34.161
	c-18.865,0-34.155-15.289-34.155-34.155V406.898c0-18.863,15.289-34.155,34.155-34.155h34.161c18.863,0,34.157,15.292,34.157,34.155
	V611.846z M715.284,850.946L476.183,701.511c0-69.585,0-358.46,0-384.272l239.101-149.434
	C715.284,209.432,715.284,812.516,715.284,850.946z"/>
</svg>
